<svg width="2256" height="504" viewBox="0 0 2256 504" fill="none" xmlns="http://www.w3.org/2000/svg">
<line x1="250" y1="330" x2="250" y2="452" stroke="#C79A0F" stroke-width="40"/>
<path d="M86.2145 146H414.284C456.152 146 481.194 192.584 458.101 227.506C439.878 255.063 413.071 275.838 381.838 286.608L287.544 319.123C267.069 326.183 244.856 326.405 224.245 319.756L123.466 287.247C89.0872 276.157 60.1407 252.535 42.3826 221.078C23.441 187.524 47.6837 146 86.2145 146Z" stroke="#C79A0F" stroke-width="30"/>
<path d="M120 85H380C391.046 85 400 93.9543 400 105V182.176C400 221.809 388.09 260.528 365.816 293.309C353.361 311.639 337.913 327.745 320.118 340.954L308.998 349.208C273.894 375.264 225.934 375.498 190.579 349.784L179.727 341.892C160.734 328.079 144.413 310.926 131.561 291.27C110.968 259.774 100 222.959 100 185.327V105C100 93.9543 108.954 85 120 85Z" fill="#F2C94C"/>
<path d="M285.691 419.411L351.248 467.923C366.75 479.395 358.636 504 339.351 504H160.649C141.364 504 133.25 479.395 148.752 467.923L214.309 419.411C235.516 403.718 264.484 403.718 285.691 419.411Z" fill="#F2C94C"/>
<ellipse cx="44.5" cy="315.5" rx="21.5" ry="22.5" fill="#F2C94C"/>
<ellipse cx="130.5" cy="421.5" rx="21.5" ry="20.5" fill="#F2C94C"/>
<circle cx="100" cy="339" r="14" fill="#C79A0F"/>
<ellipse cx="35" cy="107" rx="20" ry="21" fill="#F2C94C"/>
<ellipse cx="68" cy="50.5" rx="13" ry="12.5" fill="#C79A0F"/>
<ellipse cx="474.5" cy="60.5" rx="23.5" ry="22.5" fill="#F2C94C"/>
<ellipse cx="413.5" cy="91.5" rx="13.5" ry="14.5" fill="#C79A0F"/>
<line x1="385" y1="13" x2="385" y2="68" stroke="#F2C94C" stroke-width="10"/>
<line x1="358" y1="41" x2="413" y2="41" stroke="#F2C94C" stroke-width="10"/>
<circle cx="149" cy="20" r="20" fill="#F2C94C"/>
<circle cx="224.5" cy="39.5" r="11.5" fill="#C79A0F"/>
<path d="M266.787 310.783L278.957 302.915C302.363 287.78 322.348 267.921 337.629 244.61L339.995 241" stroke="#FCF1D0" stroke-width="40" stroke-linecap="round"/>
<path d="M631.674 400.4C616.474 400.4 601.974 398.3 588.174 394.1C574.574 389.9 563.674 384.1 555.474 376.7C551.674 373.5 549.774 369.4 549.774 364.4C549.774 360.8 550.774 357.8 552.774 355.4C554.774 352.8 557.174 351.5 559.974 351.5C562.774 351.5 566.174 352.8 570.174 355.4C587.974 368.6 608.274 375.2 631.074 375.2C647.074 375.2 659.374 372.2 667.974 366.2C676.574 360.2 680.874 351.6 680.874 340.4C680.874 331.6 676.874 325 668.874 320.6C660.874 316.2 648.074 312 630.474 308C613.674 304.4 599.874 300.3 589.074 295.7C578.274 291.1 569.774 284.9 563.574 277.1C557.574 269.1 554.574 259 554.574 246.8C554.574 234.6 557.874 223.8 564.474 214.4C571.274 204.8 580.674 197.4 592.674 192.2C604.674 186.8 618.374 184.1 633.774 184.1C647.974 184.1 661.074 186.1 673.074 190.1C685.074 194.1 695.274 200 703.674 207.8C707.674 211.2 709.674 215.3 709.674 220.1C709.674 223.5 708.574 226.5 706.374 229.1C704.374 231.7 701.974 233 699.174 233C696.574 233 693.274 231.7 689.274 229.1C680.074 222.1 671.374 217.1 663.174 214.1C655.174 210.9 645.474 209.3 634.074 209.3C618.674 209.3 606.674 212.5 598.074 218.9C589.474 225.1 585.174 233.8 585.174 245C585.174 254.6 588.974 261.9 596.574 266.9C604.174 271.7 616.374 276.1 633.174 280.1C650.774 284.1 664.974 288.3 675.774 292.7C686.774 296.9 695.474 302.8 701.874 310.4C708.474 317.8 711.774 327.4 711.774 339.2C711.774 351.2 708.374 361.9 701.574 371.3C694.974 380.5 685.574 387.7 673.374 392.9C661.374 397.9 647.474 400.4 631.674 400.4ZM761.56 399.5C757.16 399.5 753.46 398.3 750.46 395.9C747.66 393.5 746.26 389.9 746.26 385.1V263.3C746.26 258.5 747.66 254.9 750.46 252.5C753.46 249.9 757.16 248.6 761.56 248.6C765.96 248.6 769.56 249.9 772.36 252.5C775.16 254.9 776.56 258.5 776.56 263.3V385.1C776.56 389.9 775.16 393.5 772.36 395.9C769.56 398.3 765.96 399.5 761.56 399.5ZM761.56 219.2C755.76 219.2 751.16 217.6 747.76 214.4C744.36 211.2 742.66 207 742.66 201.8C742.66 196.6 744.36 192.5 747.76 189.5C751.16 186.3 755.76 184.7 761.56 184.7C767.16 184.7 771.66 186.3 775.06 189.5C778.66 192.5 780.46 196.6 780.46 201.8C780.46 207 778.76 211.2 775.36 214.4C771.96 217.6 767.36 219.2 761.56 219.2ZM986.916 248C1019.72 248 1036.12 267.7 1036.12 307.1V385.1C1036.12 389.7 1034.72 393.3 1031.92 395.9C1029.12 398.3 1025.42 399.5 1020.82 399.5C1016.42 399.5 1012.82 398.3 1010.02 395.9C1007.22 393.3 1005.82 389.7 1005.82 385.1V307.4C1005.82 295.2 1003.62 286.4 999.216 281C994.816 275.4 987.916 272.6 978.516 272.6C967.516 272.6 958.816 276.4 952.416 284C946.016 291.4 942.816 301.6 942.816 314.6V385.1C942.816 389.7 941.416 393.3 938.616 395.9C935.816 398.3 932.116 399.5 927.516 399.5C923.116 399.5 919.516 398.3 916.716 395.9C913.916 393.3 912.516 389.7 912.516 385.1V307.4C912.516 295.2 910.316 286.4 905.916 281C901.516 275.4 894.616 272.6 885.216 272.6C874.216 272.6 865.416 276.4 858.816 284C852.416 291.4 849.216 301.6 849.216 314.6V385.1C849.216 389.7 847.816 393.3 845.016 395.9C842.216 398.3 838.616 399.5 834.216 399.5C829.816 399.5 826.116 398.3 823.116 395.9C820.316 393.3 818.916 389.7 818.916 385.1V263C818.916 258.6 820.416 255.1 823.416 252.5C826.416 249.9 830.016 248.6 834.216 248.6C838.416 248.6 841.816 249.9 844.416 252.5C847.216 254.9 848.616 258.3 848.616 262.7V273.8C853.016 265.4 859.116 259 866.916 254.6C874.716 250.2 883.716 248 893.916 248C905.116 248 914.316 250.3 921.516 254.9C928.916 259.5 934.416 266.6 938.016 276.2C942.416 267.6 948.916 260.8 957.516 255.8C966.116 250.6 975.916 248 986.916 248ZM1156.21 248C1168.81 248 1180.01 251.2 1189.81 257.6C1199.81 264 1207.51 273 1212.91 284.6C1218.51 296.2 1221.31 309.6 1221.31 324.8C1221.31 339.8 1218.61 353 1213.21 364.4C1207.81 375.8 1200.11 384.6 1190.11 390.8C1180.31 397 1169.01 400.1 1156.21 400.1C1145.21 400.1 1135.51 397.8 1127.11 393.2C1118.71 388.4 1112.31 381.6 1107.91 372.8V439.7C1107.91 443.9 1106.51 447.2 1103.71 449.6C1101.11 452.2 1097.61 453.5 1093.21 453.5C1088.61 453.5 1084.81 452.2 1081.81 449.6C1079.01 447 1077.61 443.5 1077.61 439.1V263.3C1077.61 258.9 1079.01 255.4 1081.81 252.8C1084.61 250 1088.31 248.6 1092.91 248.6C1097.31 248.6 1100.91 250 1103.71 252.8C1106.51 255.4 1107.91 258.9 1107.91 263.3V275.6C1112.31 266.8 1118.71 260 1127.11 255.2C1135.51 250.4 1145.21 248 1156.21 248ZM1149.01 376.1C1162.21 376.1 1172.41 371.7 1179.61 362.9C1186.81 353.9 1190.41 341.2 1190.41 324.8C1190.41 308.2 1186.71 295.3 1179.31 286.1C1172.11 276.9 1162.01 272.3 1149.01 272.3C1135.81 272.3 1125.61 276.8 1118.41 285.8C1111.41 294.8 1107.91 307.6 1107.91 324.2C1107.91 340.8 1111.41 353.6 1118.41 362.6C1125.61 371.6 1135.81 376.1 1149.01 376.1ZM1270.15 399.5C1265.75 399.5 1262.05 398.3 1259.05 395.9C1256.25 393.5 1254.85 389.9 1254.85 385.1V199.7C1254.85 194.9 1256.25 191.3 1259.05 188.9C1262.05 186.3 1265.75 185 1270.15 185C1274.55 185 1278.15 186.3 1280.95 188.9C1283.75 191.3 1285.15 194.9 1285.15 199.7V385.1C1285.15 389.9 1283.75 393.5 1280.95 395.9C1278.15 398.3 1274.55 399.5 1270.15 399.5ZM1442.11 361.1C1444.91 361.1 1447.21 362.2 1449.01 364.4C1450.81 366.6 1451.71 369.4 1451.71 372.8C1451.71 378.6 1448.11 383.5 1440.91 387.5C1433.91 391.5 1426.21 394.6 1417.81 396.8C1409.61 399 1401.71 400.1 1394.11 400.1C1370.91 400.1 1352.61 393.4 1339.21 380C1325.81 366.4 1319.11 347.9 1319.11 324.5C1319.11 309.5 1322.01 296.2 1327.81 284.6C1333.81 273 1342.11 264 1352.71 257.6C1363.51 251.2 1375.71 248 1389.31 248C1408.91 248 1424.41 254.3 1435.81 266.9C1447.21 279.5 1452.91 296.5 1452.91 317.9C1452.91 325.9 1449.31 329.9 1442.11 329.9H1349.41C1351.41 360.9 1366.31 376.4 1394.11 376.4C1401.51 376.4 1407.91 375.4 1413.31 373.4C1418.71 371.4 1424.41 368.8 1430.41 365.6C1431.01 365.2 1432.61 364.4 1435.21 363.2C1438.01 361.8 1440.31 361.1 1442.11 361.1ZM1389.91 270.2C1378.31 270.2 1369.01 273.9 1362.01 281.3C1355.01 288.7 1350.81 299.1 1349.41 312.5H1426.81C1426.21 298.9 1422.71 288.5 1416.31 281.3C1410.11 273.9 1401.31 270.2 1389.91 270.2ZM1648.9 285.8C1652.7 285.8 1655.7 286.9 1657.9 289.1C1660.3 291.3 1661.5 294.3 1661.5 298.1V368.3C1661.5 375.1 1660.5 380 1658.5 383C1656.7 386 1653 388.4 1647.4 390.2C1639.4 393.4 1629.9 395.9 1618.9 397.7C1607.9 399.5 1597 400.4 1586.2 400.4C1564.8 400.4 1546.3 396.1 1530.7 387.5C1515.1 378.9 1503.2 366.5 1495 350.3C1486.8 334.1 1482.7 314.7 1482.7 292.1C1482.7 269.9 1486.8 250.7 1495 234.5C1503.2 218.3 1514.9 205.9 1530.1 197.3C1545.5 188.5 1563.5 184.1 1584.1 184.1C1598.1 184.1 1611 186.2 1622.8 190.4C1634.8 194.4 1645 200.3 1653.4 208.1C1657.4 211.3 1659.4 215.3 1659.4 220.1C1659.4 223.7 1658.4 226.8 1656.4 229.4C1654.4 231.8 1652 233 1649.2 233C1647.4 233 1645.8 232.7 1644.4 232.1C1643 231.5 1641.2 230.5 1639 229.1C1629.2 221.9 1620.3 216.9 1612.3 214.1C1604.3 211.1 1595.1 209.6 1584.7 209.6C1561.9 209.6 1544.5 216.7 1532.5 230.9C1520.5 244.9 1514.5 265.3 1514.5 292.1C1514.5 319.5 1520.6 340.3 1532.8 354.5C1545.2 368.5 1563.3 375.5 1587.1 375.5C1603.1 375.5 1618.5 373.1 1633.3 368.3V309.2H1594C1590 309.2 1586.8 308.2 1584.4 306.2C1582.2 304 1581.1 301.1 1581.1 297.5C1581.1 293.9 1582.2 291.1 1584.4 289.1C1586.8 286.9 1590 285.8 1594 285.8H1648.9ZM1768.16 400.1C1753.76 400.1 1741.06 397 1730.06 390.8C1719.26 384.6 1710.86 375.8 1704.86 364.4C1699.06 352.8 1696.16 339.4 1696.16 324.2C1696.16 308.8 1699.06 295.4 1704.86 284C1710.86 272.4 1719.26 263.5 1730.06 257.3C1741.06 251.1 1753.76 248 1768.16 248C1782.56 248 1795.16 251.1 1805.96 257.3C1816.96 263.5 1825.36 272.4 1831.16 284C1837.16 295.4 1840.16 308.8 1840.16 324.2C1840.16 339.4 1837.16 352.8 1831.16 364.4C1825.36 375.8 1816.96 384.6 1805.96 390.8C1795.16 397 1782.56 400.1 1768.16 400.1ZM1768.16 376.1C1781.56 376.1 1791.76 371.7 1798.76 362.9C1805.96 354.1 1809.56 341.2 1809.56 324.2C1809.56 307.4 1805.96 294.6 1798.76 285.8C1791.56 276.8 1781.36 272.3 1768.16 272.3C1754.96 272.3 1744.76 276.8 1737.56 285.8C1730.36 294.6 1726.76 307.4 1726.76 324.2C1726.76 341.2 1730.26 354.1 1737.26 362.9C1744.46 371.7 1754.76 376.1 1768.16 376.1ZM1935.4 248C1954.8 248 1969.2 252.9 1978.6 262.7C1988.2 272.5 1993 287.4 1993 307.4V385.1C1993 389.7 1991.7 393.3 1989.1 395.9C1986.5 398.3 1982.9 399.5 1978.3 399.5C1973.9 399.5 1970.4 398.2 1967.8 395.6C1965.2 393 1963.9 389.5 1963.9 385.1V374C1960.1 382.4 1954.4 388.9 1946.8 393.5C1939.4 397.9 1930.7 400.1 1920.7 400.1C1911.1 400.1 1902.3 398.2 1894.3 394.4C1886.3 390.4 1880 384.9 1875.4 377.9C1871 370.9 1868.8 363.1 1868.8 354.5C1868.8 343.9 1871.5 335.6 1876.9 329.6C1882.5 323.4 1891.6 319 1904.2 316.4C1917 313.8 1934.5 312.5 1956.7 312.5H1963.6V303.8C1963.6 292.6 1961.3 284.5 1956.7 279.5C1952.1 274.5 1944.7 272 1934.5 272C1927.5 272 1920.9 272.9 1914.7 274.7C1908.5 276.5 1901.7 279.1 1894.3 282.5C1888.9 285.5 1885.1 287 1882.9 287C1879.9 287 1877.4 285.9 1875.4 283.7C1873.6 281.5 1872.7 278.7 1872.7 275.3C1872.7 272.3 1873.5 269.7 1875.1 267.5C1876.9 265.1 1879.7 262.8 1883.5 260.6C1890.5 256.8 1898.7 253.8 1908.1 251.6C1917.5 249.2 1926.6 248 1935.4 248ZM1926.1 377.6C1937.1 377.6 1946.1 373.9 1953.1 366.5C1960.1 358.9 1963.6 349.2 1963.6 337.4V329.6H1958.2C1942.6 329.6 1930.6 330.3 1922.2 331.7C1913.8 333.1 1907.8 335.5 1904.2 338.9C1900.6 342.1 1898.8 346.8 1898.8 353C1898.8 360.2 1901.4 366.1 1906.6 370.7C1911.8 375.3 1918.3 377.6 1926.1 377.6ZM2049.74 399.5C2045.34 399.5 2041.64 398.3 2038.64 395.9C2035.84 393.5 2034.44 389.9 2034.44 385.1V199.7C2034.44 194.9 2035.84 191.3 2038.64 188.9C2041.64 186.3 2045.34 185 2049.74 185C2054.14 185 2057.74 186.3 2060.54 188.9C2063.34 191.3 2064.74 194.9 2064.74 199.7V385.1C2064.74 389.9 2063.34 393.5 2060.54 395.9C2057.74 398.3 2054.14 399.5 2049.74 399.5ZM2158.1 400.1C2137.7 400.1 2121 395.9 2108 387.5C2104.4 385.3 2101.8 383 2100.2 380.6C2098.8 378.2 2098.1 375.5 2098.1 372.5C2098.1 369.3 2099 366.6 2100.8 364.4C2102.6 362.2 2104.9 361.1 2107.7 361.1C2110.3 361.1 2114.4 362.7 2120 365.9C2126 369.1 2131.8 371.7 2137.4 373.7C2143.2 375.7 2150.4 376.7 2159 376.7C2168.6 376.7 2176.1 375 2181.5 371.6C2186.9 368.2 2189.6 363.4 2189.6 357.2C2189.6 353.2 2188.5 350 2186.3 347.6C2184.3 345.2 2180.7 343.1 2175.5 341.3C2170.3 339.3 2162.6 337.2 2152.4 335C2134.8 331.2 2122.1 326.1 2114.3 319.7C2106.7 313.1 2102.9 304.2 2102.9 293C2102.9 284.4 2105.4 276.7 2110.4 269.9C2115.4 262.9 2122.3 257.5 2131.1 253.7C2139.9 249.9 2149.9 248 2161.1 248C2169.1 248 2176.9 249.1 2184.5 251.3C2192.1 253.3 2198.8 256.3 2204.6 260.3C2211.2 264.7 2214.5 269.8 2214.5 275.6C2214.5 278.8 2213.5 281.5 2211.5 283.7C2209.7 285.9 2207.5 287 2204.9 287C2203.1 287 2201.3 286.6 2199.5 285.8C2197.7 285 2195.3 283.7 2192.3 281.9C2186.9 278.7 2181.8 276.2 2177 274.4C2172.4 272.6 2166.6 271.7 2159.6 271.7C2151.2 271.7 2144.4 273.5 2139.2 277.1C2134.2 280.7 2131.7 285.6 2131.7 291.8C2131.7 297.4 2134 301.8 2138.6 305C2143.4 308 2152.3 310.9 2165.3 313.7C2178.7 316.5 2189.2 319.7 2196.8 323.3C2204.4 326.9 2209.8 331.4 2213 336.8C2216.4 342 2218.1 348.7 2218.1 356.9C2218.1 369.9 2212.6 380.4 2201.6 388.4C2190.8 396.2 2176.3 400.1 2158.1 400.1Z" fill="#4A5568"/>
</svg>
