<svg width="512" height="512" viewBox="0 0 512 512" fill="none" xmlns="http://www.w3.org/2000/svg">
<g>
<rect width="512" height="512" fill="white"/>
<line x1="256" y1="336" x2="256" y2="458" stroke="#C79A0F" stroke-width="40"/>
<path d="M92.2145 152H420.284C462.152 152 487.194 198.584 464.101 233.506C445.878 261.063 419.071 281.838 387.838 292.608L293.544 325.123C273.069 332.183 250.856 332.405 230.245 325.756L129.466 293.247C95.0872 282.157 66.1407 258.535 48.3826 227.078C29.441 193.524 53.6837 152 92.2145 152Z" stroke="#C79A0F" stroke-width="30"/>
<path d="M126 91H386C397.046 91 406 99.9543 406 111V188.176C406 227.809 394.09 266.528 371.816 299.309C359.361 317.639 343.913 333.745 326.118 346.954L314.998 355.208C279.894 381.264 231.934 381.498 196.579 355.784L185.727 347.892C166.734 334.079 150.413 316.926 137.561 297.27C116.968 265.774 106 228.959 106 191.327V111C106 99.9543 114.954 91 126 91Z" fill="#F2C94C"/>
<path d="M291.691 425.411L357.248 473.923C372.75 485.395 364.636 510 345.351 510H166.649C147.364 510 139.25 485.395 154.752 473.923L220.309 425.411C241.516 409.718 270.484 409.718 291.691 425.411Z" fill="#F2C94C"/>
<ellipse cx="50.5" cy="321.5" rx="21.5" ry="22.5" fill="#F2C94C"/>
<ellipse cx="136.5" cy="427.5" rx="21.5" ry="20.5" fill="#F2C94C"/>
<circle cx="106" cy="345" r="14" fill="#C79A0F"/>
<ellipse cx="41" cy="113" rx="20" ry="21" fill="#F2C94C"/>
<ellipse cx="74" cy="56.5" rx="13" ry="12.5" fill="#C79A0F"/>
<ellipse cx="480.5" cy="66.5" rx="23.5" ry="22.5" fill="#F2C94C"/>
<ellipse cx="419.5" cy="97.5" rx="13.5" ry="14.5" fill="#C79A0F"/>
<line x1="391" y1="19" x2="391" y2="74" stroke="#F2C94C" stroke-width="10"/>
<line x1="364" y1="47" x2="419" y2="47" stroke="#F2C94C" stroke-width="10"/>
<circle cx="155" cy="26" r="20" fill="#F2C94C"/>
<circle cx="230.5" cy="45.5" r="11.5" fill="#C79A0F"/>
<path d="M272.787 316.783L284.957 308.915C308.363 293.78 328.348 273.921 343.629 250.61L345.995 247" stroke="#FCF1D0" stroke-width="40" stroke-linecap="round"/>
</g>
</svg>
